HIERARCHY
ROOT Hips
{
	OFFSET 0.000000 0.000000 0.000000
	CHANNELS 6 Xposition Yposition Zposition Zrotation Yrotation Xrotation 
	JOINT LHipJoint
	{
		OFFSET 0.000000 0.000000 0.000000
		CHANNELS 3 Zrotation Yrotation Xrotation
		JOINT LeftUpLeg
		{
			OFFSET 1.363060 -1.794630 0.839290
			CHANNELS 3 Zrotation Yrotation Xrotation
			JOINT LeftLeg
			{
				OFFSET 2.448110 -6.726130 0.000000
				CHANNELS 3 Zrotation Yrotation Xrotation
				JOINT LeftFoot
				{
					OFFSET 2.562200 -7.039590 0.000000
					CHANNELS 3 Zrotation Yrotation Xrotation
					JOINT LeftToeBase
					{
						OFFSET 0.157640 -0.433110 2.322550
						CHANNELS 3 Zrotation Yrotation Xrotation
						End Site
						{
							OFFSET 0.000000 0.000000 0.000000
						}
					}
				}
			}
		}
	}
	JOINT RHipJoint
	{
		OFFSET 0.000000 0.000000 0.000000
		CHANNELS 3 Zrotation Yrotation Xrotation
		JOINT RightUpLeg
		{
			OFFSET -1.305520 -1.794630 0.839290
			CHANNELS 3 Zrotation Yrotation Xrotation
			JOINT RightLeg
			{
				OFFSET -2.542530 -6.985550 0.000000
				CHANNELS 3 Zrotation Yrotation Xrotation
				JOINT RightFoot
				{
					OFFSET -2.568260 -7.056230 0.000000
					CHANNELS 3 Zrotation Yrotation Xrotation
					JOINT RightToeBase
					{
						OFFSET -0.164730 -0.452590 2.363150
						CHANNELS 3 Zrotation Yrotation Xrotation
						End Site
						{
							OFFSET 0.000000 0.000000 0.000000
						}
					}
				}
			}
		}
	}
}
MOTION
Frames: 31
Frame Time: 0.008333
-3.971681 16.691388 -1.240447 4.274857 75.705134 23.195775 -8.802588 -1.214769 0.977268 -5.636306 -8.412743 -42.464759 -1.795523 0.623953 19.156885 -0.137649 -1.748130 7.797122 -0.153600 0.000000 -34.251700 11.062481 -1.074946 -3.613645 4.898660 -2.443664 -18.054064 0.933229 -3.746027 49.024895 1.048088 12.617441 -3.196753 0.661299 -0.000000 -67.971200
-3.871272 16.687452 -1.239261 5.064278 75.260278 23.979355 -8.733300 -1.189772 0.852917 -6.177378 -8.314638 -42.679913 -1.796842 0.698077 20.560305 -0.077862 -1.311636 6.819453 -0.026400 -0.000001 -33.655100 11.231174 -1.011516 -3.576664 4.354202 -2.302890 -18.977314 0.657307 -3.888133 50.828404 0.981240 12.347145 -1.580741 0.991800 -0.000000 -70.379100
-3.775361 16.689314 -1.240650 5.591836 74.824773 24.493375 -8.662455 -1.175483 0.727193 -6.599543 -8.293262 -42.728175 -1.796531 0.752644 21.742551 -0.012796 -0.862920 5.748466 0.089600 0.000000 -33.328599 11.378099 -0.935289 -3.547384 3.901401 -2.059575 -19.839969 0.382435 -4.014528 52.526260 0.894943 11.997993 0.183121 1.342600 0.000001 -72.433000
-3.683368 16.696633 -1.244961 5.855645 74.387814 24.734481 -8.595383 -1.170625 0.599016 -6.908071 -8.317326 -42.611620 -1.794555 0.788692 22.689172 0.056753 -0.409151 4.657202 0.189400 0.000000 -33.239100 11.502058 -0.849009 -3.524130 3.542372 -1.724735 -20.635795 0.114201 -4.123439 54.107047 0.790194 11.592504 2.086296 1.704400 -0.000000 -74.095400
-3.594576 16.708835 -1.252217 5.872001 73.939423 24.718921 -8.536023 -1.173285 0.467922 -7.116689 -8.355002 -42.342896 -1.790810 0.808087 23.398594 0.129547 0.046252 3.612843 0.272100 0.000000 -33.328500 11.603644 -0.755943 -3.503840 3.273603 -1.312999 -21.365136 -0.141924 -4.214130 55.565913 0.668364 11.149422 4.111729 2.067100 0.000000 -75.304500
-3.508218 16.725226 -1.262252 5.662871 73.471415 24.471198 -8.487500 -1.181531 0.333617 -7.242002 -8.372905 -41.945659 -1.785016 0.813665 23.884200 0.203686 0.498745 2.670071 0.339000 -0.000000 -33.525000 11.684073 -0.659760 -3.482476 3.091587 -0.839076 -22.033965 -0.380586 -4.286681 56.903151 0.531569 10.680888 6.226516 2.418000 0.000001 -75.985700
-3.423466 16.745083 -1.274590 5.268570 72.978184 24.035475 -8.451362 -1.192968 0.196851 -7.306012 -8.342985 -41.448693 -1.777337 0.808334 24.167572 0.277061 0.944481 1.868179 0.393500 0.000000 -33.754699 11.745962 -0.563909 -3.455855 2.986981 -0.321406 -22.653857 -0.597468 -4.342316 58.124500 0.382465 10.189415 8.384990 2.742200 -0.000001 -76.077900
-3.339639 16.767589 -1.288622 4.736805 72.455936 23.465069 -8.427913 -1.205366 0.058181 -7.331517 -8.241603 -40.885092 -1.768546 0.795162 24.278304 0.347328 1.376448 1.227352 0.439300 0.000000 -33.952200 11.792274 -0.470844 -3.421029 2.948835 0.220633 -23.239437 -0.789873 -4.382965 59.239144 0.224020 9.664933 10.530438 3.020700 0.000000 -75.599700
-3.256136 16.792100 -1.303480 4.128216 71.904745 22.824598 -8.416420 -1.216034 -0.079836 -7.343161 -8.054237 -40.285388 -1.760315 0.776348 24.246292 0.412263 1.786370 0.750284 0.480000 -0.000000 -34.068600 11.826854 -0.383158 -3.374923 2.961334 0.764891 -23.807672 -0.956907 -4.411603 60.261405 0.059590 9.087464 12.592536 3.229800 0.000001 -74.529400
-3.172575 16.817935 -1.318392 3.494349 71.326393 22.171073 -8.415381 -1.222884 -0.215716 -7.361584 -7.771895 -39.679822 -1.754907 0.753969 24.104085 0.469780 2.162258 0.421046 0.517201 0.000000 -34.074200 11.852761 -0.301666 -3.317083 3.010826 1.290813 -24.374902 -1.099843 -4.431125 61.205239 -0.107915 8.425110 14.498639 3.342700 0.000000 -72.953700
-3.088739 16.844653 -1.332500 2.883051 70.726358 21.556187 -8.422807 -1.223825 -0.346972 -7.404413 -7.394450 -39.091644 -1.755059 0.729151 23.879469 0.518088 2.491154 0.211811 0.551200 0.000000 -33.960200 11.872979 -0.226982 -3.247743 3.083603 1.778641 -24.955502 -1.221616 -4.444662 62.085429 -0.276021 7.641880 16.174690 3.331999 0.000000 -70.965700
-3.004488 16.871876 -1.345161 2.326551 70.111573 21.015735 -8.436626 -1.217378 -0.470938 -7.482461 -6.927989 -38.540307 -1.763424 0.702488 23.596603 0.555806 2.759935 0.086121 0.580500 -0.000000 -33.735100 11.889421 -0.158974 -3.167876 3.170331 2.213353 -25.561169 -1.326187 -4.454664 62.912075 -0.443203 6.702011 17.555097 3.174300 0.000001 -68.745000
-2.920311 16.899279 -1.355886 1.856562 69.490218 20.577731 -8.453379 -1.202482 -0.587254 -7.606206 -6.388307 -38.027391 -1.782472 0.673842 23.270818 0.582492 2.961703 0.006410 0.603300 0.000000 -33.420800 11.905029 -0.096148 -3.082967 3.258612 2.576279 -26.196083 -1.418069 -4.464700 63.700627 -0.608702 5.579257 18.579914 2.856201 0.000000 -66.298700
-2.836026 16.926823 -1.364502 1.465132 68.870743 20.239249 -8.472283 -1.179086 -0.692689 -7.769685 -5.789588 -37.562659 -1.813215 0.642946 22.914321 0.597700 3.087481 -0.062029 0.616700 0.000000 -33.048800 11.918760 -0.038363 -2.993698 3.352771 2.866592 -26.863274 -1.500564 -4.475160 64.446937 -0.772487 4.262821 19.214729 2.380300 0.000000 -63.916300
-2.752342 16.954294 -1.370885 1.165439 68.260541 20.005910 -8.490023 -1.147172 -0.787555 -7.974511 -5.156202 -37.132131 -1.856267 0.608769 22.527863 0.602600 3.142512 -0.143831 0.619800 0.000000 -32.652300 11.932655 0.016174 -2.906606 3.444865 3.073388 -27.557882 -1.576317 -4.488863 65.157361 -0.934412 2.765211 19.428956 1.767500 0.000000 -61.567700
-2.669330 16.981765 -1.375376 0.931587 67.664509 19.851738 -8.506738 -1.108107 -0.871263 -8.206338 -4.503976 -36.728971 -1.910401 0.570845 22.111761 0.598110 3.129318 -0.254521 0.612000 0.000000 -32.265500 11.944677 0.067714 -2.824507 3.544489 3.202242 -28.271530 -1.645968 -4.505653 65.821512 -1.094236 1.121660 19.222788 1.057901 0.000000 -59.366800
-2.587314 17.009184 -1.378420 0.743308 67.084865 19.751712 -8.522317 -1.063529 -0.945143 -8.453041 -3.848359 -36.337806 -1.973597 0.528697 21.661345 0.585952 3.058275 -0.397350 0.594600 0.000001 -31.915600 11.953588 0.116822 -2.751771 3.657075 3.256959 -28.992030 -1.708756 -4.525775 66.429329 -1.250885 -0.610493 18.611985 0.306000 -0.000000 -57.296200
-2.506744 17.036418 -1.380359 0.598653 66.522654 19.695547 -8.535553 -1.014356 -1.010011 -8.708793 -3.208126 -35.938002 -2.043415 0.481270 21.165495 0.568877 2.950119 -0.563023 0.571300 0.000000 -31.620800 11.960145 0.163715 -2.691788 3.778877 3.239340 -29.707571 -1.762835 -4.550090 66.972396 -1.401857 -2.354662 17.626828 -0.425200 -0.000000 -55.272199
-2.427559 17.063562 -1.381966 0.459032 65.973181 19.643090 -8.549074 -0.963261 -1.069218 -8.954817 -2.582697 -35.519857 -2.116323 0.429412 20.622471 0.548422 2.815529 -0.738635 0.544300 -0.000000 -31.389900 11.961026 0.208176 -2.646581 3.923177 3.163412 -30.403021 -1.805294 -4.576462 67.431489 -1.544161 -4.031584 16.333282 -1.078000 0.000000 -53.286499
-2.349948 17.090443 -1.383701 0.313542 65.432625 19.576353 -8.563935 -0.911618 -1.125184 -9.183714 -1.973933 -35.070676 -2.189312 0.373466 20.028624 0.526579 2.671324 -0.905480 0.517200 0.000000 -31.220000 11.955899 0.249223 -2.616601 4.089924 3.037052 -31.065443 -1.833207 -4.603982 67.793918 -1.673356 -5.561688 14.806639 -1.606099 -0.000000 -51.286900
-2.273800 17.116978 -1.385973 0.148277 64.893060 19.479009 -8.581372 -0.860796 -1.181336 -9.388831 -1.377533 -34.584722 -2.259588 0.314522 19.384684 0.505034 2.532199 -1.045032 0.492600 0.000000 -31.099800 11.944084 0.286749 -2.601703 4.279845 2.870875 -31.685514 -1.844146 -4.630792 68.046935 -1.784423 -6.877565 13.138503 -1.983700 -0.000001 -49.263700
-2.199122 17.143050 -1.389102 -0.044198 64.348302 19.339131 -8.602874 -0.811717 -1.240626 -9.566866 -0.784158 -34.060440 -2.325129 0.254029 18.697631 0.484736 2.407349 -1.143383 0.472300 -0.000000 -31.010901 11.925455 0.319642 -2.599914 4.492080 2.674097 -32.255047 -1.836563 -4.655203 68.181487 -1.872130 -7.929479 11.424583 -2.206799 -0.000000 -47.243600
-2.125718 17.168501 -1.393142 -0.266099 63.790819 19.153183 -8.629131 -0.764794 -1.305693 -9.718536 -0.183910 -33.501870 -2.384858 0.193561 17.978239 0.466260 2.302404 -1.193018 0.457100 0.000000 -30.932900 11.900493 0.347409 -2.608682 4.723595 2.455189 -32.770520 -1.810182 -4.675604 68.192525 -1.931870 -8.688805 9.756629 -2.290600 0.000000 -45.283400
-2.053438 17.193164 -1.398031 -0.514979 63.214375 18.923159 -8.660369 -0.720135 -1.378734 -9.846867 0.433791 -32.916701 -2.438611 0.134724 17.241138 0.449696 2.218170 -1.193777 0.446900 -0.000001 -30.846500 11.870111 0.369678 -2.624964 4.970096 2.221413 -33.231147 -1.765877 -4.690777 68.078896 -1.960310 -9.147756 8.211742 -2.263100 -0.000000 -43.453200
-1.982125 17.216881 -1.403518 -0.782530 62.614938 18.657093 -8.696188 -0.677327 -1.460735 -9.957567 1.077039 -32.314557 -2.487096 0.078794 16.502988 0.434862 2.152007 -1.153532 0.440500 0.000000 -30.737200 11.835687 0.386105 -2.645294 5.226355 1.978055 -33.638938 -1.705487 -4.700069 67.844297 -1.956057 -9.317401 6.845014 -2.156700 0.000000 -41.816200
-1.911671 17.239491 -1.409271 -1.059235 61.989436 18.365594 -8.735632 -0.635949 -1.551981 -10.056510 1.751055 -31.706756 -2.531590 0.026722 15.781086 0.421367 2.098252 -1.086719 0.436600 0.000000 -30.596900 11.798646 0.396834 -2.666479 5.487228 1.729740 -33.998473 -1.631363 -4.703263 67.495783 -1.920097 -9.225048 5.685416 -2.001600 -0.000001 -40.412500
-1.841909 17.260848 -1.414879 -1.335748 61.336981 18.061322 -8.777178 -0.595675 -1.652124 -10.149213 2.456677 -31.104719 -2.573610 -0.020988 15.091389 0.408835 2.050485 -1.011805 0.433300 0.000001 -30.424900 11.760317 0.402458 -2.686115 5.748652 1.480311 -34.315743 -1.545886 -4.700511 67.042470 -1.855825 -8.910580 4.735638 -1.822000 0.000000 -39.251500
-1.772854 17.280840 -1.419898 -1.600736 60.659887 17.755998 -8.819560 -0.555716 -1.758918 -10.240803 3.190526 -30.516994 -2.614653 -0.064402 14.447670 0.396930 2.002400 -0.949174 0.428900 -0.000000 -30.227100 11.721764 0.403012 -2.701208 6.006867 1.232354 -34.596503 -1.451259 -4.692287 66.496151 -1.768806 -8.423494 3.974326 -1.634400 -0.000001 -38.313100
-1.704384 17.299378 -1.424032 -1.849598 59.958724 17.459911 -8.860684 -0.516318 -1.871400 -10.332677 3.944107 -29.950319 -2.655602 -0.103789 13.857733 0.385894 1.952175 -0.916692 0.422100 -0.000000 -30.015299 11.683563 0.400456 -2.711993 6.260859 0.988805 -34.847259 -1.349103 -4.679038 65.867102 -1.666077 -7.818672 3.363255 -1.449600 0.000000 -37.556700
-1.636568 17.316342 -1.426945 -2.076870 59.238521 17.179742 -8.899538 -0.477158 -1.986354 -10.426034 4.707664 -29.409616 -2.697020 -0.139758 13.328716 0.375896 1.898382 -0.929649 0.412400 -0.000000 -29.802500 11.645736 0.394964 -2.716921 6.510706 0.751147 -35.073416 -1.240537 -4.661347 65.166425 -1.555463 -7.153237 2.853343 -1.274300 0.000000 -36.931000
-1.569479 17.331682 -1.428476 -2.280336 58.503613 16.918610 -8.935209 -0.438121 -2.100781 -10.519690 5.468347 -28.895048 -2.738664 -0.173066 12.861391 0.367621 1.844735 -0.996757 0.399700 0.000000 -29.603300 11.607930 0.387229 -2.715998 6.757557 0.520073 -35.278193 -1.126206 -4.639655 64.403646 -1.444701 -6.482244 2.392516 -1.113300 -0.000000 -36.382501
